G75*
%MOIN*%
%OFA0B0*%
%FSLAX25Y25*%
%IPPOS*%
%LPD*%
%AMOC8*
5,1,8,0,0,1.08239X$1,22.5*
%
%ADD10C,0.01600*%
%ADD11C,0.00000*%
D10*
X0041250Y0001800D02*
X0041250Y0211800D01*
X0441250Y0211800D01*
X0441250Y0001800D01*
X0041250Y0001800D01*
D11*
X0416951Y0011800D02*
X0416953Y0011958D01*
X0416959Y0012116D01*
X0416969Y0012274D01*
X0416983Y0012432D01*
X0417001Y0012589D01*
X0417022Y0012746D01*
X0417048Y0012902D01*
X0417078Y0013058D01*
X0417111Y0013213D01*
X0417149Y0013366D01*
X0417190Y0013519D01*
X0417235Y0013671D01*
X0417284Y0013822D01*
X0417337Y0013971D01*
X0417393Y0014119D01*
X0417453Y0014265D01*
X0417517Y0014410D01*
X0417585Y0014553D01*
X0417656Y0014695D01*
X0417730Y0014835D01*
X0417808Y0014972D01*
X0417890Y0015108D01*
X0417974Y0015242D01*
X0418063Y0015373D01*
X0418154Y0015502D01*
X0418249Y0015629D01*
X0418346Y0015754D01*
X0418447Y0015876D01*
X0418551Y0015995D01*
X0418658Y0016112D01*
X0418768Y0016226D01*
X0418881Y0016337D01*
X0418996Y0016446D01*
X0419114Y0016551D01*
X0419235Y0016653D01*
X0419358Y0016753D01*
X0419484Y0016849D01*
X0419612Y0016942D01*
X0419742Y0017032D01*
X0419875Y0017118D01*
X0420010Y0017202D01*
X0420146Y0017281D01*
X0420285Y0017358D01*
X0420426Y0017430D01*
X0420568Y0017500D01*
X0420712Y0017565D01*
X0420858Y0017627D01*
X0421005Y0017685D01*
X0421154Y0017740D01*
X0421304Y0017791D01*
X0421455Y0017838D01*
X0421607Y0017881D01*
X0421760Y0017920D01*
X0421915Y0017956D01*
X0422070Y0017987D01*
X0422226Y0018015D01*
X0422382Y0018039D01*
X0422539Y0018059D01*
X0422697Y0018075D01*
X0422854Y0018087D01*
X0423013Y0018095D01*
X0423171Y0018099D01*
X0423329Y0018099D01*
X0423487Y0018095D01*
X0423646Y0018087D01*
X0423803Y0018075D01*
X0423961Y0018059D01*
X0424118Y0018039D01*
X0424274Y0018015D01*
X0424430Y0017987D01*
X0424585Y0017956D01*
X0424740Y0017920D01*
X0424893Y0017881D01*
X0425045Y0017838D01*
X0425196Y0017791D01*
X0425346Y0017740D01*
X0425495Y0017685D01*
X0425642Y0017627D01*
X0425788Y0017565D01*
X0425932Y0017500D01*
X0426074Y0017430D01*
X0426215Y0017358D01*
X0426354Y0017281D01*
X0426490Y0017202D01*
X0426625Y0017118D01*
X0426758Y0017032D01*
X0426888Y0016942D01*
X0427016Y0016849D01*
X0427142Y0016753D01*
X0427265Y0016653D01*
X0427386Y0016551D01*
X0427504Y0016446D01*
X0427619Y0016337D01*
X0427732Y0016226D01*
X0427842Y0016112D01*
X0427949Y0015995D01*
X0428053Y0015876D01*
X0428154Y0015754D01*
X0428251Y0015629D01*
X0428346Y0015502D01*
X0428437Y0015373D01*
X0428526Y0015242D01*
X0428610Y0015108D01*
X0428692Y0014972D01*
X0428770Y0014835D01*
X0428844Y0014695D01*
X0428915Y0014553D01*
X0428983Y0014410D01*
X0429047Y0014265D01*
X0429107Y0014119D01*
X0429163Y0013971D01*
X0429216Y0013822D01*
X0429265Y0013671D01*
X0429310Y0013519D01*
X0429351Y0013366D01*
X0429389Y0013213D01*
X0429422Y0013058D01*
X0429452Y0012902D01*
X0429478Y0012746D01*
X0429499Y0012589D01*
X0429517Y0012432D01*
X0429531Y0012274D01*
X0429541Y0012116D01*
X0429547Y0011958D01*
X0429549Y0011800D01*
X0429547Y0011642D01*
X0429541Y0011484D01*
X0429531Y0011326D01*
X0429517Y0011168D01*
X0429499Y0011011D01*
X0429478Y0010854D01*
X0429452Y0010698D01*
X0429422Y0010542D01*
X0429389Y0010387D01*
X0429351Y0010234D01*
X0429310Y0010081D01*
X0429265Y0009929D01*
X0429216Y0009778D01*
X0429163Y0009629D01*
X0429107Y0009481D01*
X0429047Y0009335D01*
X0428983Y0009190D01*
X0428915Y0009047D01*
X0428844Y0008905D01*
X0428770Y0008765D01*
X0428692Y0008628D01*
X0428610Y0008492D01*
X0428526Y0008358D01*
X0428437Y0008227D01*
X0428346Y0008098D01*
X0428251Y0007971D01*
X0428154Y0007846D01*
X0428053Y0007724D01*
X0427949Y0007605D01*
X0427842Y0007488D01*
X0427732Y0007374D01*
X0427619Y0007263D01*
X0427504Y0007154D01*
X0427386Y0007049D01*
X0427265Y0006947D01*
X0427142Y0006847D01*
X0427016Y0006751D01*
X0426888Y0006658D01*
X0426758Y0006568D01*
X0426625Y0006482D01*
X0426490Y0006398D01*
X0426354Y0006319D01*
X0426215Y0006242D01*
X0426074Y0006170D01*
X0425932Y0006100D01*
X0425788Y0006035D01*
X0425642Y0005973D01*
X0425495Y0005915D01*
X0425346Y0005860D01*
X0425196Y0005809D01*
X0425045Y0005762D01*
X0424893Y0005719D01*
X0424740Y0005680D01*
X0424585Y0005644D01*
X0424430Y0005613D01*
X0424274Y0005585D01*
X0424118Y0005561D01*
X0423961Y0005541D01*
X0423803Y0005525D01*
X0423646Y0005513D01*
X0423487Y0005505D01*
X0423329Y0005501D01*
X0423171Y0005501D01*
X0423013Y0005505D01*
X0422854Y0005513D01*
X0422697Y0005525D01*
X0422539Y0005541D01*
X0422382Y0005561D01*
X0422226Y0005585D01*
X0422070Y0005613D01*
X0421915Y0005644D01*
X0421760Y0005680D01*
X0421607Y0005719D01*
X0421455Y0005762D01*
X0421304Y0005809D01*
X0421154Y0005860D01*
X0421005Y0005915D01*
X0420858Y0005973D01*
X0420712Y0006035D01*
X0420568Y0006100D01*
X0420426Y0006170D01*
X0420285Y0006242D01*
X0420146Y0006319D01*
X0420010Y0006398D01*
X0419875Y0006482D01*
X0419742Y0006568D01*
X0419612Y0006658D01*
X0419484Y0006751D01*
X0419358Y0006847D01*
X0419235Y0006947D01*
X0419114Y0007049D01*
X0418996Y0007154D01*
X0418881Y0007263D01*
X0418768Y0007374D01*
X0418658Y0007488D01*
X0418551Y0007605D01*
X0418447Y0007724D01*
X0418346Y0007846D01*
X0418249Y0007971D01*
X0418154Y0008098D01*
X0418063Y0008227D01*
X0417974Y0008358D01*
X0417890Y0008492D01*
X0417808Y0008628D01*
X0417730Y0008765D01*
X0417656Y0008905D01*
X0417585Y0009047D01*
X0417517Y0009190D01*
X0417453Y0009335D01*
X0417393Y0009481D01*
X0417337Y0009629D01*
X0417284Y0009778D01*
X0417235Y0009929D01*
X0417190Y0010081D01*
X0417149Y0010234D01*
X0417111Y0010387D01*
X0417078Y0010542D01*
X0417048Y0010698D01*
X0417022Y0010854D01*
X0417001Y0011011D01*
X0416983Y0011168D01*
X0416969Y0011326D01*
X0416959Y0011484D01*
X0416953Y0011642D01*
X0416951Y0011800D01*
X0392251Y0201800D02*
X0392253Y0201958D01*
X0392259Y0202116D01*
X0392269Y0202274D01*
X0392283Y0202432D01*
X0392301Y0202589D01*
X0392322Y0202746D01*
X0392348Y0202902D01*
X0392378Y0203058D01*
X0392411Y0203213D01*
X0392449Y0203366D01*
X0392490Y0203519D01*
X0392535Y0203671D01*
X0392584Y0203822D01*
X0392637Y0203971D01*
X0392693Y0204119D01*
X0392753Y0204265D01*
X0392817Y0204410D01*
X0392885Y0204553D01*
X0392956Y0204695D01*
X0393030Y0204835D01*
X0393108Y0204972D01*
X0393190Y0205108D01*
X0393274Y0205242D01*
X0393363Y0205373D01*
X0393454Y0205502D01*
X0393549Y0205629D01*
X0393646Y0205754D01*
X0393747Y0205876D01*
X0393851Y0205995D01*
X0393958Y0206112D01*
X0394068Y0206226D01*
X0394181Y0206337D01*
X0394296Y0206446D01*
X0394414Y0206551D01*
X0394535Y0206653D01*
X0394658Y0206753D01*
X0394784Y0206849D01*
X0394912Y0206942D01*
X0395042Y0207032D01*
X0395175Y0207118D01*
X0395310Y0207202D01*
X0395446Y0207281D01*
X0395585Y0207358D01*
X0395726Y0207430D01*
X0395868Y0207500D01*
X0396012Y0207565D01*
X0396158Y0207627D01*
X0396305Y0207685D01*
X0396454Y0207740D01*
X0396604Y0207791D01*
X0396755Y0207838D01*
X0396907Y0207881D01*
X0397060Y0207920D01*
X0397215Y0207956D01*
X0397370Y0207987D01*
X0397526Y0208015D01*
X0397682Y0208039D01*
X0397839Y0208059D01*
X0397997Y0208075D01*
X0398154Y0208087D01*
X0398313Y0208095D01*
X0398471Y0208099D01*
X0398629Y0208099D01*
X0398787Y0208095D01*
X0398946Y0208087D01*
X0399103Y0208075D01*
X0399261Y0208059D01*
X0399418Y0208039D01*
X0399574Y0208015D01*
X0399730Y0207987D01*
X0399885Y0207956D01*
X0400040Y0207920D01*
X0400193Y0207881D01*
X0400345Y0207838D01*
X0400496Y0207791D01*
X0400646Y0207740D01*
X0400795Y0207685D01*
X0400942Y0207627D01*
X0401088Y0207565D01*
X0401232Y0207500D01*
X0401374Y0207430D01*
X0401515Y0207358D01*
X0401654Y0207281D01*
X0401790Y0207202D01*
X0401925Y0207118D01*
X0402058Y0207032D01*
X0402188Y0206942D01*
X0402316Y0206849D01*
X0402442Y0206753D01*
X0402565Y0206653D01*
X0402686Y0206551D01*
X0402804Y0206446D01*
X0402919Y0206337D01*
X0403032Y0206226D01*
X0403142Y0206112D01*
X0403249Y0205995D01*
X0403353Y0205876D01*
X0403454Y0205754D01*
X0403551Y0205629D01*
X0403646Y0205502D01*
X0403737Y0205373D01*
X0403826Y0205242D01*
X0403910Y0205108D01*
X0403992Y0204972D01*
X0404070Y0204835D01*
X0404144Y0204695D01*
X0404215Y0204553D01*
X0404283Y0204410D01*
X0404347Y0204265D01*
X0404407Y0204119D01*
X0404463Y0203971D01*
X0404516Y0203822D01*
X0404565Y0203671D01*
X0404610Y0203519D01*
X0404651Y0203366D01*
X0404689Y0203213D01*
X0404722Y0203058D01*
X0404752Y0202902D01*
X0404778Y0202746D01*
X0404799Y0202589D01*
X0404817Y0202432D01*
X0404831Y0202274D01*
X0404841Y0202116D01*
X0404847Y0201958D01*
X0404849Y0201800D01*
X0404847Y0201642D01*
X0404841Y0201484D01*
X0404831Y0201326D01*
X0404817Y0201168D01*
X0404799Y0201011D01*
X0404778Y0200854D01*
X0404752Y0200698D01*
X0404722Y0200542D01*
X0404689Y0200387D01*
X0404651Y0200234D01*
X0404610Y0200081D01*
X0404565Y0199929D01*
X0404516Y0199778D01*
X0404463Y0199629D01*
X0404407Y0199481D01*
X0404347Y0199335D01*
X0404283Y0199190D01*
X0404215Y0199047D01*
X0404144Y0198905D01*
X0404070Y0198765D01*
X0403992Y0198628D01*
X0403910Y0198492D01*
X0403826Y0198358D01*
X0403737Y0198227D01*
X0403646Y0198098D01*
X0403551Y0197971D01*
X0403454Y0197846D01*
X0403353Y0197724D01*
X0403249Y0197605D01*
X0403142Y0197488D01*
X0403032Y0197374D01*
X0402919Y0197263D01*
X0402804Y0197154D01*
X0402686Y0197049D01*
X0402565Y0196947D01*
X0402442Y0196847D01*
X0402316Y0196751D01*
X0402188Y0196658D01*
X0402058Y0196568D01*
X0401925Y0196482D01*
X0401790Y0196398D01*
X0401654Y0196319D01*
X0401515Y0196242D01*
X0401374Y0196170D01*
X0401232Y0196100D01*
X0401088Y0196035D01*
X0400942Y0195973D01*
X0400795Y0195915D01*
X0400646Y0195860D01*
X0400496Y0195809D01*
X0400345Y0195762D01*
X0400193Y0195719D01*
X0400040Y0195680D01*
X0399885Y0195644D01*
X0399730Y0195613D01*
X0399574Y0195585D01*
X0399418Y0195561D01*
X0399261Y0195541D01*
X0399103Y0195525D01*
X0398946Y0195513D01*
X0398787Y0195505D01*
X0398629Y0195501D01*
X0398471Y0195501D01*
X0398313Y0195505D01*
X0398154Y0195513D01*
X0397997Y0195525D01*
X0397839Y0195541D01*
X0397682Y0195561D01*
X0397526Y0195585D01*
X0397370Y0195613D01*
X0397215Y0195644D01*
X0397060Y0195680D01*
X0396907Y0195719D01*
X0396755Y0195762D01*
X0396604Y0195809D01*
X0396454Y0195860D01*
X0396305Y0195915D01*
X0396158Y0195973D01*
X0396012Y0196035D01*
X0395868Y0196100D01*
X0395726Y0196170D01*
X0395585Y0196242D01*
X0395446Y0196319D01*
X0395310Y0196398D01*
X0395175Y0196482D01*
X0395042Y0196568D01*
X0394912Y0196658D01*
X0394784Y0196751D01*
X0394658Y0196847D01*
X0394535Y0196947D01*
X0394414Y0197049D01*
X0394296Y0197154D01*
X0394181Y0197263D01*
X0394068Y0197374D01*
X0393958Y0197488D01*
X0393851Y0197605D01*
X0393747Y0197724D01*
X0393646Y0197846D01*
X0393549Y0197971D01*
X0393454Y0198098D01*
X0393363Y0198227D01*
X0393274Y0198358D01*
X0393190Y0198492D01*
X0393108Y0198628D01*
X0393030Y0198765D01*
X0392956Y0198905D01*
X0392885Y0199047D01*
X0392817Y0199190D01*
X0392753Y0199335D01*
X0392693Y0199481D01*
X0392637Y0199629D01*
X0392584Y0199778D01*
X0392535Y0199929D01*
X0392490Y0200081D01*
X0392449Y0200234D01*
X0392411Y0200387D01*
X0392378Y0200542D01*
X0392348Y0200698D01*
X0392322Y0200854D01*
X0392301Y0201011D01*
X0392283Y0201168D01*
X0392269Y0201326D01*
X0392259Y0201484D01*
X0392253Y0201642D01*
X0392251Y0201800D01*
X0096951Y0201800D02*
X0096953Y0201958D01*
X0096959Y0202116D01*
X0096969Y0202274D01*
X0096983Y0202432D01*
X0097001Y0202589D01*
X0097022Y0202746D01*
X0097048Y0202902D01*
X0097078Y0203058D01*
X0097111Y0203213D01*
X0097149Y0203366D01*
X0097190Y0203519D01*
X0097235Y0203671D01*
X0097284Y0203822D01*
X0097337Y0203971D01*
X0097393Y0204119D01*
X0097453Y0204265D01*
X0097517Y0204410D01*
X0097585Y0204553D01*
X0097656Y0204695D01*
X0097730Y0204835D01*
X0097808Y0204972D01*
X0097890Y0205108D01*
X0097974Y0205242D01*
X0098063Y0205373D01*
X0098154Y0205502D01*
X0098249Y0205629D01*
X0098346Y0205754D01*
X0098447Y0205876D01*
X0098551Y0205995D01*
X0098658Y0206112D01*
X0098768Y0206226D01*
X0098881Y0206337D01*
X0098996Y0206446D01*
X0099114Y0206551D01*
X0099235Y0206653D01*
X0099358Y0206753D01*
X0099484Y0206849D01*
X0099612Y0206942D01*
X0099742Y0207032D01*
X0099875Y0207118D01*
X0100010Y0207202D01*
X0100146Y0207281D01*
X0100285Y0207358D01*
X0100426Y0207430D01*
X0100568Y0207500D01*
X0100712Y0207565D01*
X0100858Y0207627D01*
X0101005Y0207685D01*
X0101154Y0207740D01*
X0101304Y0207791D01*
X0101455Y0207838D01*
X0101607Y0207881D01*
X0101760Y0207920D01*
X0101915Y0207956D01*
X0102070Y0207987D01*
X0102226Y0208015D01*
X0102382Y0208039D01*
X0102539Y0208059D01*
X0102697Y0208075D01*
X0102854Y0208087D01*
X0103013Y0208095D01*
X0103171Y0208099D01*
X0103329Y0208099D01*
X0103487Y0208095D01*
X0103646Y0208087D01*
X0103803Y0208075D01*
X0103961Y0208059D01*
X0104118Y0208039D01*
X0104274Y0208015D01*
X0104430Y0207987D01*
X0104585Y0207956D01*
X0104740Y0207920D01*
X0104893Y0207881D01*
X0105045Y0207838D01*
X0105196Y0207791D01*
X0105346Y0207740D01*
X0105495Y0207685D01*
X0105642Y0207627D01*
X0105788Y0207565D01*
X0105932Y0207500D01*
X0106074Y0207430D01*
X0106215Y0207358D01*
X0106354Y0207281D01*
X0106490Y0207202D01*
X0106625Y0207118D01*
X0106758Y0207032D01*
X0106888Y0206942D01*
X0107016Y0206849D01*
X0107142Y0206753D01*
X0107265Y0206653D01*
X0107386Y0206551D01*
X0107504Y0206446D01*
X0107619Y0206337D01*
X0107732Y0206226D01*
X0107842Y0206112D01*
X0107949Y0205995D01*
X0108053Y0205876D01*
X0108154Y0205754D01*
X0108251Y0205629D01*
X0108346Y0205502D01*
X0108437Y0205373D01*
X0108526Y0205242D01*
X0108610Y0205108D01*
X0108692Y0204972D01*
X0108770Y0204835D01*
X0108844Y0204695D01*
X0108915Y0204553D01*
X0108983Y0204410D01*
X0109047Y0204265D01*
X0109107Y0204119D01*
X0109163Y0203971D01*
X0109216Y0203822D01*
X0109265Y0203671D01*
X0109310Y0203519D01*
X0109351Y0203366D01*
X0109389Y0203213D01*
X0109422Y0203058D01*
X0109452Y0202902D01*
X0109478Y0202746D01*
X0109499Y0202589D01*
X0109517Y0202432D01*
X0109531Y0202274D01*
X0109541Y0202116D01*
X0109547Y0201958D01*
X0109549Y0201800D01*
X0109547Y0201642D01*
X0109541Y0201484D01*
X0109531Y0201326D01*
X0109517Y0201168D01*
X0109499Y0201011D01*
X0109478Y0200854D01*
X0109452Y0200698D01*
X0109422Y0200542D01*
X0109389Y0200387D01*
X0109351Y0200234D01*
X0109310Y0200081D01*
X0109265Y0199929D01*
X0109216Y0199778D01*
X0109163Y0199629D01*
X0109107Y0199481D01*
X0109047Y0199335D01*
X0108983Y0199190D01*
X0108915Y0199047D01*
X0108844Y0198905D01*
X0108770Y0198765D01*
X0108692Y0198628D01*
X0108610Y0198492D01*
X0108526Y0198358D01*
X0108437Y0198227D01*
X0108346Y0198098D01*
X0108251Y0197971D01*
X0108154Y0197846D01*
X0108053Y0197724D01*
X0107949Y0197605D01*
X0107842Y0197488D01*
X0107732Y0197374D01*
X0107619Y0197263D01*
X0107504Y0197154D01*
X0107386Y0197049D01*
X0107265Y0196947D01*
X0107142Y0196847D01*
X0107016Y0196751D01*
X0106888Y0196658D01*
X0106758Y0196568D01*
X0106625Y0196482D01*
X0106490Y0196398D01*
X0106354Y0196319D01*
X0106215Y0196242D01*
X0106074Y0196170D01*
X0105932Y0196100D01*
X0105788Y0196035D01*
X0105642Y0195973D01*
X0105495Y0195915D01*
X0105346Y0195860D01*
X0105196Y0195809D01*
X0105045Y0195762D01*
X0104893Y0195719D01*
X0104740Y0195680D01*
X0104585Y0195644D01*
X0104430Y0195613D01*
X0104274Y0195585D01*
X0104118Y0195561D01*
X0103961Y0195541D01*
X0103803Y0195525D01*
X0103646Y0195513D01*
X0103487Y0195505D01*
X0103329Y0195501D01*
X0103171Y0195501D01*
X0103013Y0195505D01*
X0102854Y0195513D01*
X0102697Y0195525D01*
X0102539Y0195541D01*
X0102382Y0195561D01*
X0102226Y0195585D01*
X0102070Y0195613D01*
X0101915Y0195644D01*
X0101760Y0195680D01*
X0101607Y0195719D01*
X0101455Y0195762D01*
X0101304Y0195809D01*
X0101154Y0195860D01*
X0101005Y0195915D01*
X0100858Y0195973D01*
X0100712Y0196035D01*
X0100568Y0196100D01*
X0100426Y0196170D01*
X0100285Y0196242D01*
X0100146Y0196319D01*
X0100010Y0196398D01*
X0099875Y0196482D01*
X0099742Y0196568D01*
X0099612Y0196658D01*
X0099484Y0196751D01*
X0099358Y0196847D01*
X0099235Y0196947D01*
X0099114Y0197049D01*
X0098996Y0197154D01*
X0098881Y0197263D01*
X0098768Y0197374D01*
X0098658Y0197488D01*
X0098551Y0197605D01*
X0098447Y0197724D01*
X0098346Y0197846D01*
X0098249Y0197971D01*
X0098154Y0198098D01*
X0098063Y0198227D01*
X0097974Y0198358D01*
X0097890Y0198492D01*
X0097808Y0198628D01*
X0097730Y0198765D01*
X0097656Y0198905D01*
X0097585Y0199047D01*
X0097517Y0199190D01*
X0097453Y0199335D01*
X0097393Y0199481D01*
X0097337Y0199629D01*
X0097284Y0199778D01*
X0097235Y0199929D01*
X0097190Y0200081D01*
X0097149Y0200234D01*
X0097111Y0200387D01*
X0097078Y0200542D01*
X0097048Y0200698D01*
X0097022Y0200854D01*
X0097001Y0201011D01*
X0096983Y0201168D01*
X0096969Y0201326D01*
X0096959Y0201484D01*
X0096953Y0201642D01*
X0096951Y0201800D01*
M02*
