%
M48
M72
T01C0.0276
T02C0.0315
T03C0.0320
T04C0.0400
T05C0.0433
T06C0.0440
T07C0.0472
T08C0.0630
T09C0.1260
%
T01
X12625Y7180
X13625Y8180
X14625Y7180
T02
X6125Y1180
X7125Y1180
X8125Y1180
X9125Y1180
X13625Y2180
X13625Y4180
X18625Y5180
X18625Y7180
X17625Y10680
X19625Y10680
X14625Y10680
X12625Y10680
X9125Y8680
X7125Y8680
X7125Y7680
X8125Y7680
X9125Y7680
X6125Y7680
X6125Y10680
X6125Y11680
X5125Y11680
X7125Y11680
X8125Y11680
X8125Y10680
X8125Y18180
X7125Y18180
X6125Y18180
X5125Y18180
X10625Y18180
X12625Y18180
X34125Y18180
X36125Y18180
X37625Y19680
X39125Y16680
X41125Y16680
X38625Y9680
X38625Y7680
X38625Y4180
X36125Y3180
X34125Y3180
X38625Y2180
T03
X31625Y3680
X30625Y3180
X26625Y3180
X31625Y7680
X31625Y13680
X31625Y17680
X30625Y18180
X26625Y18180
X25125Y18180
X21125Y18180
X19625Y18180
X15625Y18180
X16625Y12180
X12625Y12180
X16125Y8180
X16125Y4180
T04
X16125Y1180
X15125Y1180
X17125Y1180
X18125Y1180
X19125Y1180
X20125Y1180
X21125Y1180
X22125Y1180
X24125Y1180
X25125Y1180
X26125Y1180
X27125Y1180
X28125Y1180
X29125Y1180
X29125Y20180
X28125Y20180
X27125Y20180
X26125Y20180
X25125Y20180
X24125Y20180
X23125Y20180
X22125Y20180
X20625Y20180
X19625Y20180
X18625Y20180
X17625Y20180
X16625Y20180
X15625Y20180
X14625Y20180
X13625Y20180
X12625Y20180
X11625Y20180
T05
X38945Y13180
X41305Y13180
X40125Y15030
T06
X40625Y9930
X41625Y9930
X42625Y9930
X28625Y7180
X28625Y6180
X28625Y5180
X32625Y1180
X36625Y1180
X20125Y4180
X20125Y8180
X20125Y13180
X18625Y14180
X18625Y15180
X18625Y16180
X20125Y17180
X28625Y16180
X28625Y15180
X28625Y14180
T07
X34125Y15180
X36125Y15180
X36125Y6180
X34125Y6180
T08
X26625Y10680
X24775Y10680
T09
X10325Y20180
X39855Y20180
X42325Y1180
M30
