G75*
%MOIN*%
%OFA0B0*%
%FSLAX25Y25*%
%IPPOS*%
%LPD*%
%AMOC8*
5,1,8,0,0,1.08239X$1,22.5*
%
%ADD10C,0.07400*%
%ADD11C,0.06600*%
%ADD12C,0.04724*%
%ADD13C,0.07600*%
%ADD14C,0.11000*%
%ADD15C,0.06496*%
%ADD16C,0.06600*%
%ADD17OC8,0.07600*%
%ADD18C,0.07087*%
%ADD19C,0.01600*%
%ADD20C,0.03200*%
%ADD21C,0.01000*%
%ADD22C,0.02400*%
D10*
X0151250Y0011800D03*
X0161250Y0011800D03*
X0171250Y0011800D03*
X0181250Y0011800D03*
X0191250Y0011800D03*
X0201250Y0011800D03*
X0211250Y0011800D03*
X0221250Y0011800D03*
X0241250Y0011800D03*
X0251250Y0011800D03*
X0261250Y0011800D03*
X0271250Y0011800D03*
X0281250Y0011800D03*
X0291250Y0011800D03*
X0291250Y0201800D03*
X0281250Y0201800D03*
X0271250Y0201800D03*
X0261250Y0201800D03*
X0251250Y0201800D03*
X0241250Y0201800D03*
X0231250Y0201800D03*
X0221250Y0201800D03*
X0206250Y0201800D03*
X0196250Y0201800D03*
X0186250Y0201800D03*
X0176250Y0201800D03*
X0166250Y0201800D03*
X0156250Y0201800D03*
X0146250Y0201800D03*
X0136250Y0201800D03*
X0126250Y0201800D03*
X0116250Y0201800D03*
D11*
X0182950Y0161800D02*
X0189550Y0161800D01*
X0189550Y0151800D02*
X0182950Y0151800D01*
X0182950Y0141800D02*
X0189550Y0141800D01*
X0282950Y0141800D02*
X0289550Y0141800D01*
X0289550Y0151800D02*
X0282950Y0151800D01*
X0282950Y0161800D02*
X0289550Y0161800D01*
X0406250Y0102600D02*
X0406250Y0096000D01*
X0416250Y0096000D02*
X0416250Y0102600D01*
X0426250Y0102600D02*
X0426250Y0096000D01*
X0289550Y0071800D02*
X0282950Y0071800D01*
X0282950Y0061800D02*
X0289550Y0061800D01*
X0289550Y0051800D02*
X0282950Y0051800D01*
D12*
X0061250Y0014162D02*
X0061250Y0009438D01*
X0071250Y0009438D02*
X0071250Y0014162D01*
X0081250Y0014162D02*
X0081250Y0009438D01*
X0091250Y0009438D02*
X0091250Y0014162D01*
X0186250Y0049438D02*
X0186250Y0054162D01*
X0186250Y0069438D02*
X0186250Y0074162D01*
X0178612Y0106800D02*
X0173888Y0106800D01*
X0193888Y0106800D02*
X0198612Y0106800D01*
X0148612Y0106800D02*
X0143888Y0106800D01*
X0128612Y0106800D02*
X0123888Y0106800D01*
X0093612Y0086800D02*
X0088888Y0086800D01*
X0073612Y0086800D02*
X0068888Y0086800D01*
X0071250Y0079162D02*
X0071250Y0074438D01*
X0081250Y0074438D02*
X0081250Y0079162D01*
X0091250Y0079162D02*
X0091250Y0074438D01*
X0061250Y0074438D02*
X0061250Y0079162D01*
X0058888Y0106800D02*
X0063612Y0106800D01*
X0061250Y0114438D02*
X0061250Y0119162D01*
X0051250Y0119162D02*
X0051250Y0114438D01*
X0071250Y0114438D02*
X0071250Y0119162D01*
X0081250Y0119162D02*
X0081250Y0114438D01*
X0078888Y0106800D02*
X0083612Y0106800D01*
X0081250Y0179438D02*
X0081250Y0184162D01*
X0071250Y0184162D02*
X0071250Y0179438D01*
X0061250Y0179438D02*
X0061250Y0184162D01*
X0051250Y0184162D02*
X0051250Y0179438D01*
X0103888Y0181800D02*
X0108612Y0181800D01*
X0123888Y0181800D02*
X0128612Y0181800D01*
X0338888Y0181800D02*
X0343612Y0181800D01*
X0358888Y0181800D02*
X0363612Y0181800D01*
X0373888Y0196800D02*
X0378612Y0196800D01*
X0388888Y0166800D02*
X0393612Y0166800D01*
X0408888Y0166800D02*
X0413612Y0166800D01*
X0386250Y0099162D02*
X0386250Y0094438D01*
X0386250Y0079162D02*
X0386250Y0074438D01*
X0386250Y0044162D02*
X0386250Y0039438D01*
X0363612Y0031800D02*
X0358888Y0031800D01*
X0343612Y0031800D02*
X0338888Y0031800D01*
X0386250Y0024162D02*
X0386250Y0019438D01*
D13*
X0366250Y0011800D03*
X0326250Y0011800D03*
X0201250Y0041800D03*
X0201250Y0081800D03*
X0201250Y0131800D03*
X0201250Y0171800D03*
D14*
X0247750Y0112300D02*
X0247750Y0101300D01*
X0266250Y0101300D02*
X0266250Y0112300D01*
D15*
X0389450Y0128552D02*
X0389450Y0135048D01*
X0413050Y0135048D02*
X0413050Y0128552D01*
X0404498Y0150300D02*
X0398002Y0150300D01*
D16*
X0316250Y0136800D03*
X0316250Y0176800D03*
X0306250Y0181800D03*
X0266250Y0181800D03*
X0251250Y0181800D03*
X0211250Y0181800D03*
X0196250Y0181800D03*
X0156250Y0181800D03*
X0166250Y0121800D03*
X0126250Y0121800D03*
X0136250Y0081800D03*
X0126250Y0071800D03*
X0146250Y0071800D03*
X0161250Y0081800D03*
X0161250Y0041800D03*
X0266250Y0031800D03*
X0306250Y0031800D03*
X0316250Y0036800D03*
X0316250Y0076800D03*
D17*
X0136250Y0041800D03*
X0136250Y0021800D03*
D18*
X0337707Y0061800D02*
X0344793Y0061800D01*
X0357707Y0061800D02*
X0364793Y0061800D01*
X0364793Y0151800D02*
X0357707Y0151800D01*
X0344793Y0151800D02*
X0337707Y0151800D01*
D19*
X0316250Y0136800D02*
X0291250Y0136800D01*
X0286250Y0141800D01*
X0263750Y0174300D02*
X0261250Y0176800D01*
X0261250Y0181800D01*
X0251250Y0181800D01*
X0261250Y0181800D02*
X0261250Y0201800D01*
X0261250Y0181800D02*
X0266250Y0181800D01*
X0263750Y0174300D02*
X0311250Y0174300D01*
X0313750Y0176800D01*
X0316250Y0176800D01*
X0306250Y0181800D02*
X0311250Y0186800D01*
X0326250Y0186800D01*
X0331250Y0181800D01*
X0341250Y0181800D01*
X0201250Y0131800D02*
X0196250Y0131800D01*
X0186250Y0141800D01*
X0186250Y0151800D02*
X0176250Y0151800D01*
X0176250Y0106800D01*
X0166250Y0121800D02*
X0166250Y0201800D01*
X0126250Y0121800D02*
X0126250Y0106800D01*
X0101250Y0096800D02*
X0091250Y0096800D01*
X0081250Y0106800D01*
X0081250Y0116800D01*
X0091250Y0096800D02*
X0091250Y0086800D01*
X0091250Y0076800D01*
X0101250Y0096800D02*
X0121250Y0076800D01*
X0141250Y0076800D01*
X0146250Y0071800D01*
X0161250Y0081800D02*
X0176250Y0081800D01*
X0186250Y0071800D01*
X0161250Y0041800D02*
X0191250Y0011800D01*
X0171250Y0011800D02*
X0171250Y0021800D01*
X0136250Y0021800D01*
X0286250Y0051800D02*
X0291250Y0051800D01*
X0316250Y0076800D01*
X0306250Y0031800D02*
X0311250Y0026800D01*
X0326250Y0026800D01*
X0331250Y0031800D01*
X0341250Y0031800D01*
D20*
X0366250Y0011800D02*
X0376250Y0021800D01*
X0386250Y0021800D01*
X0396250Y0021800D01*
X0396250Y0099300D01*
X0406250Y0099300D01*
X0416250Y0096800D02*
X0416250Y0116800D01*
X0413050Y0131800D01*
X0411250Y0141800D01*
X0411250Y0166800D01*
X0391250Y0166800D02*
X0391250Y0151800D01*
X0389450Y0131800D01*
X0336250Y0131800D01*
X0311250Y0106800D01*
X0266250Y0106800D01*
X0293250Y0022800D02*
X0232250Y0022800D01*
X0221250Y0011800D01*
X0293250Y0022800D02*
X0304250Y0011800D01*
X0326250Y0011800D01*
D21*
X0247750Y0106800D02*
X0247250Y0106800D01*
D22*
X0231250Y0106800D01*
X0201250Y0081800D01*
X0231250Y0106800D02*
X0201250Y0131800D01*
X0255250Y0171800D02*
X0275250Y0151800D01*
X0286250Y0151800D01*
X0255250Y0171800D02*
X0201250Y0171800D01*
X0275250Y0061800D02*
X0286250Y0061800D01*
X0275250Y0061800D02*
X0255250Y0041800D01*
X0201250Y0041800D01*
M02*
